<svg xmlns="http://www.w3.org/2000/svg" width="500" height="500" viewBox="0 0 500 500">
  <!-- Lavender background -->
  <rect width="500" height="500" fill="#8b5cf6" opacity="0.1"/>
  
  <!-- Robot body -->
  <g>
    <!-- Head -->
    <path d="M250 100 C180 100 180 220 250 220 C320 220 320 100 250 100" fill="white" stroke="#8b5cf6" stroke-width="2"/>
    
    <!-- Face details -->
    <circle cx="220" cy="150" r="15" fill="#8b5cf6"/>
    <circle cx="280" cy="150" r="15" fill="#8b5cf6"/>
    <circle cx="220" cy="150" r="7" fill="white"/>
    <circle cx="280" cy="150" r="7" fill="white"/>
    
    <!-- Smile -->
    <path d="M220 180 Q250 200 280 180" stroke="#8b5cf6" stroke-width="3" fill="none"/>
    
    <!-- Head details -->
    <path d="M190 130 L170 130 L170 110" stroke="#8b5cf6" stroke-width="2" fill="none"/>
    <path d="M310 130 L330 130 L330 110" stroke="#8b5cf6" stroke-width="2" fill="none"/>
    <circle cx="170" cy="110" r="5" fill="#8b5cf6"/>
    <circle cx="330" cy="110" r="5" fill="#8b5cf6"/>
    
    <!-- Circuit patterns -->
    <path d="M200 120 L240 120" stroke="#8b5cf6" stroke-width="1" stroke-dasharray="2,2"/>
    <path d="M260 120 L300 120" stroke="#8b5cf6" stroke-width="1" stroke-dasharray="2,2"/>
    <path d="M200 190 L300 190" stroke="#8b5cf6" stroke-width="1" stroke-dasharray="2,2"/>
    
    <!-- Neck -->
    <rect x="240" y="220" width="20" height="20" fill="white" stroke="#8b5cf6" stroke-width="2"/>
    
    <!-- Body -->
    <rect x="180" y="240" width="140" height="150" rx="20" fill="white" stroke="#8b5cf6" stroke-width="2"/>
    
    <!-- Circuit patterns in body -->
    <path d="M190 260 L270 260" stroke="#8b5cf6" stroke-width="1" stroke-dasharray="2,2"/>
    <path d="M190 280 L270 280" stroke="#8b5cf6" stroke-width="1" stroke-dasharray="2,2"/>
    <path d="M190 300 L270 300" stroke="#8b5cf6" stroke-width="1" stroke-dasharray="2,2"/>
    <path d="M190 320 L270 320" stroke="#8b5cf6" stroke-width="1" stroke-dasharray="2,2"/>
    <path d="M190 340 L270 340" stroke="#8b5cf6" stroke-width="1" stroke-dasharray="2,2"/>
    <path d="M190 360 L270 360" stroke="#8b5cf6" stroke-width="1" stroke-dasharray="2,2"/>
    
    <!-- Arm joints -->
    <circle cx="180" cy="260" r="10" fill="white" stroke="#8b5cf6" stroke-width="2"/>
    <circle cx="320" cy="260" r="10" fill="white" stroke="#8b5cf6" stroke-width="2"/>
    
    <!-- Arms -->
    <rect x="120" y="260" width="60" height="15" rx="5" fill="white" stroke="#8b5cf6" stroke-width="2"/>
    <rect x="320" y="260" width="60" height="15" rx="5" fill="white" stroke="#8b5cf6" stroke-width="2"/>
    
    <!-- Hand joints -->
    <circle cx="120" cy="268" r="10" fill="white" stroke="#8b5cf6" stroke-width="2"/>
    <circle cx="380" cy="268" r="10" fill="white" stroke="#8b5cf6" stroke-width="2"/>
    
    <!-- Hands -->
    <path d="M110 268 C100 248 90 268 100 288" fill="white" stroke="#8b5cf6" stroke-width="2"/>
    <path d="M390 268 C400 248 410 268 400 288" fill="white" stroke="#8b5cf6" stroke-width="2"/>
    
    <!-- Book -->
    <rect x="160" y="300" width="180" height="120" rx="5" fill="#8b5cf6" opacity="0.3" stroke="#8b5cf6" stroke-width="2"/>
    <line x1="250" y1="300" x2="250" y2="420" stroke="#8b5cf6" stroke-width="2"/>
    
    <!-- Book text lines -->
    <line x1="180" y1="320" x2="220" y2="320" stroke="#8b5cf6" stroke-width="1"/>
    <line x1="180" y1="335" x2="230" y2="335" stroke="#8b5cf6" stroke-width="1"/>
    <line x1="180" y1="350" x2="225" y2="350" stroke="#8b5cf6" stroke-width="1"/>
    <line x1="180" y1="365" x2="215" y2="365" stroke="#8b5cf6" stroke-width="1"/>
    <line x1="180" y1="380" x2="220" y2="380" stroke="#8b5cf6" stroke-width="1"/>
    <line x1="280" y1="320" x2="320" y2="320" stroke="#8b5cf6" stroke-width="1"/>
    <line x1="270" y1="335" x2="320" y2="335" stroke="#8b5cf6" stroke-width="1"/>
    <line x1="275" y1="350" x2="320" y2="350" stroke="#8b5cf6" stroke-width="1"/>
    <line x1="285" y1="365" x2="320" y2="365" stroke="#8b5cf6" stroke-width="1"/>
    <line x1="280" y1="380" x2="320" y2="380" stroke="#8b5cf6" stroke-width="1"/>
  </g>
  
  <!-- Machine learning visualization around -->
  <g opacity="0.3">
    <!-- Neural network nodes -->
    <circle cx="100" cy="100" r="5" fill="#8b5cf6"/>
    <circle cx="140" cy="60" r="5" fill="#8b5cf6"/>
    <circle cx="400" cy="100" r="5" fill="#8b5cf6"/>
    <circle cx="360" cy="60" r="5" fill="#8b5cf6"/>
    <circle cx="100" cy="400" r="5" fill="#8b5cf6"/>
    <circle cx="140" cy="440" r="5" fill="#8b5cf6"/>
    <circle cx="400" cy="400" r="5" fill="#8b5cf6"/>
    <circle cx="360" cy="440" r="5" fill="#8b5cf6"/>
    
    <!-- Neural connections -->
    <line x1="100" y1="100" x2="140" y2="60" stroke="#8b5cf6" stroke-width="1" stroke-dasharray="3,3"/>
    <line x1="400" y1="100" x2="360" y2="60" stroke="#8b5cf6" stroke-width="1" stroke-dasharray="3,3"/>
    <line x1="100" y1="400" x2="140" y2="440" stroke="#8b5cf6" stroke-width="1" stroke-dasharray="3,3"/>
    <line x1="400" y1="400" x2="360" y2="440" stroke="#8b5cf6" stroke-width="1" stroke-dasharray="3,3"/>
    
    <line x1="100" y1="100" x2="400" y2="100" stroke="#8b5cf6" stroke-width="1" stroke-dasharray="5,5"/>
    <line x1="100" y1="400" x2="400" y2="400" stroke="#8b5cf6" stroke-width="1" stroke-dasharray="5,5"/>
    <line x1="100" y1="100" x2="100" y2="400" stroke="#8b5cf6" stroke-width="1" stroke-dasharray="5,5"/>
    <line x1="400" y1="100" x2="400" y2="400" stroke="#8b5cf6" stroke-width="1" stroke-dasharray="5,5"/>
    
    <!-- Data flow visualization -->
    <path d="M50 250 Q100 200 150 250 Q200 300 250 250 Q300 200 350 250 Q400 300 450 250" stroke="#8b5cf6" stroke-width="1" fill="none" stroke-dasharray="3,2"/>
    <circle cx="50" cy="250" r="3" fill="#8b5cf6"/>
    <circle cx="150" cy="250" r="3" fill="#8b5cf6"/>
    <circle cx="250" cy="250" r="3" fill="#8b5cf6"/>
    <circle cx="350" cy="250" r="3" fill="#8b5cf6"/>
    <circle cx="450" cy="250" r="3" fill="#8b5cf6"/>
  </g>
</svg>